<?xml version="1.0" encoding="UTF-8"?>
<svg width="201px" height="143px" viewBox="0 0 201 143" version="1.1" xmlns="http://www.w3.org/2000/svg" xmlns:xlink="http://www.w3.org/1999/xlink">
    <!-- Generator: Sketch 41 (35326) - http://www.bohemiancoding.com/sketch -->
    <title>Shape</title>
    <desc>Created with Sketch.</desc>
    <defs></defs>
    <g id="Page-1" stroke="none" stroke-width="1" fill="none" fill-rule="evenodd">
        <g id="jslogo" fill="#000000">
            <path d="M124.832889,100.266189 C130.945753,110.247162 138.898738,117.583562 152.964588,117.583562 C164.780865,117.583562 172.329216,111.677832 172.329216,103.517713 C172.329216,93.7390571 164.573731,90.2755825 151.567637,84.5866208 L144.438371,81.5277803 C123.859841,72.7607098 110.188991,61.7777863 110.188991,38.5595007 C110.188991,17.1717024 126.485145,0.89 151.953003,0.89 C170.084461,0.89 183.119457,7.20036393 192.512746,23.7229199 L170.306046,37.9814521 C165.416718,29.2143816 160.142025,25.7605412 151.953003,25.7605412 C143.6002,25.7605412 138.306239,31.0593201 138.306239,37.9814521 C138.306239,46.5365714 143.605017,50.000046 155.84038,55.2988249 L162.969646,58.3528483 C187.199516,68.743272 200.88,79.3360127 200.88,103.151615 C200.88,128.826607 180.710921,142.892457 153.624527,142.892457 C127.140266,142.892457 110.030028,130.271729 101.657957,113.729905 L124.832889,100.266189 Z M24.0934685,102.737347 C28.5733452,110.685515 32.6485879,117.40533 42.4465117,117.40533 C51.8157162,117.40533 57.7262632,113.739539 57.7262632,99.4858236 L57.7262632,2.51817024 L86.2433276,2.51817024 L86.2433276,99.8711893 C86.2433276,129.399839 68.9307719,142.839469 43.6604138,142.839469 C20.8274939,142.839469 7.6046321,131.023192 0.88,116.791154 L24.0934685,102.737347 Z" id="Shape"></path>
        </g>
    </g>
</svg>