<?xml version="1.0" encoding="utf-8"?>
<!-- Generator: Adobe Illustrator 19.2.1, SVG Export Plug-In . SVG Version: 6.00 Build 0)  -->
<svg version="1.1" id="Layer_1" xmlns="http://www.w3.org/2000/svg" xmlns:xlink="http://www.w3.org/1999/xlink" x="0px" y="0px"
	 viewBox="0 0 148 50" style="enable-background:new 0 0 148 50;" xml:space="preserve">
<style type="text/css">
	.st0{fill:#9E62C9;}
	.st1{fill:#724AB1;}
	.st2{fill:#FFFFFF;}
	.st3{filter:url(#Adobe_OpacityMaskFilter);}
	.st4{mask:url(#mask-2);fill:#FCF9F9;}
	.st5{fill:#CFD5E3;}
</style>
<title>Group</title>
<desc>Created with Sketch.</desc>
<g id="Page-1">
	<g id="Artboard-5-Copy" transform="translate(-100.000000, -36.000000)">
		<g id="Group" transform="translate(100.000000, 36.000000)">
			<g id="Logo-Copy-4" transform="translate(0.443359, 0.000000)">
				<polygon id="Background" class="st0" points="23.2,0 23.2,0 23.2,0 0,8.3 3.6,38.9 23.2,49.8 23.2,49.8 23.2,49.8 42.9,38.9 
					46.4,8.3 				"/>
				<polygon id="Shadow" class="st1" points="23.2,0 23.2,5.5 23.2,5.5 23.2,30.7 23.2,30.7 23.2,49.8 23.2,49.8 42.9,38.9 
					46.4,8.3 				"/>
				<g id="Shadow-Wrapper" transform="translate(10.297516, 13.920716)">
					<g id="UA-Mark">
						<path id="path-1_1_" class="st2" d="M18.5,14.3c-0.7,1.2-1.4,2.1-2.1,2.9c-0.9,1-1.8,1.6-3,2.1c-1.3,0.6-2.4,0.9-4.3,0.9
							c-1.9,0-3.5-0.6-4.5-1.2S2.7,17.7,2,16.7c-0.5-0.7-0.9-1.3-1.2-2c-0.1-0.4-0.4-1.1-0.4-1.2c-0.2-0.8-0.4-1.3-0.4-3.2L0,0.1
							h2.7l0,10.2C2.8,11,3,12.4,3.1,13c0.1,0.4,0.1,0.5,0.3,1c0.2,0.5,0.4,0.9,0.8,1.3c0.5,0.6,1,1.1,1.7,1.5s1.8,0.9,3.2,0.9
							c2.3,0,3.9-1.1,5.3-2.3c0.6-0.6,1.3-1.8,1.9-2.9c0.1-0.3,0.4-0.9,0.4-0.9l0.9,0l3.3,0l-3.1-8.3l-5,9.6l-2.7,0l0-0.4l0-12.5
							l2.7,0l0,7l3.6-7l3,0l7.3,19.8h-2.9l-2.1-5.6L18.5,14.3z"/>
					</g>
					<defs>
						<filter id="Adobe_OpacityMaskFilter" filterUnits="userSpaceOnUse" x="12.9" y="-13.9" width="23.2" height="49.8">
							<feColorMatrix  type="matrix" values="1 0 0 0 0  0 1 0 0 0  0 0 1 0 0  0 0 0 1 0"/>
						</filter>
					</defs>
					<mask maskUnits="userSpaceOnUse" x="12.9" y="-13.9" width="23.2" height="49.8" id="mask-2">
						<g class="st3">
							<path id="path-1" class="st2" d="M18.5,14.3c-0.7,1.2-1.4,2.1-2.1,2.9c-0.9,1-1.8,1.6-3,2.1c-1.3,0.6-2.4,0.9-4.3,0.9
								c-1.9,0-3.5-0.6-4.5-1.2S2.7,17.7,2,16.7c-0.5-0.7-0.9-1.3-1.2-2c-0.1-0.4-0.4-1.1-0.4-1.2c-0.2-0.8-0.4-1.3-0.4-3.2L0,0.1
								h2.7l0,10.2C2.8,11,3,12.4,3.1,13c0.1,0.4,0.1,0.5,0.3,1c0.2,0.5,0.4,0.9,0.8,1.3c0.5,0.6,1,1.1,1.7,1.5s1.8,0.9,3.2,0.9
								c2.3,0,3.9-1.1,5.3-2.3c0.6-0.6,1.3-1.8,1.9-2.9c0.1-0.3,0.4-0.9,0.4-0.9l0.9,0l3.3,0l-3.1-8.3l-5,9.6l-2.7,0l0-0.4l0-12.5
								l2.7,0l0,7l3.6-7l3,0l7.3,19.8h-2.9l-2.1-5.6L18.5,14.3z"/>
						</g>
					</mask>
					<polygon id="Shadow-Copy" class="st4" points="12.9,-13.9 12.9,-8.4 12.9,-8.4 12.9,16.8 12.9,16.8 12.9,35.9 12.9,35.9 
						32.6,25 36.1,-5.7 					"/>
				</g>
			</g>
			<path id="ULTIMATE-Copy" class="st5" d="M57,15.8c0,1.1,0.9,1.7,2.1,1.7c1.3,0,2.3-0.8,2.5-2.1l0.7-3.7h-1l-0.7,3.6
				c-0.2,0.8-0.7,1.2-1.5,1.2c-0.7,0-1.1-0.3-1.1-0.9c0-0.1,0-0.2,0-0.3l0.7-3.6h-1L57,15.4C57,15.5,57,15.7,57,15.8L57,15.8z
				 M62.5,17.4H66l0.2-0.9h-2.5l0.9-4.8h-1L62.5,17.4z M68,17.4h1l0.9-4.8h1.9l0.2-0.9h-4.7L67,12.6h1.8L68,17.4z M71.6,17.4h1
				l1.1-5.7h-1L71.6,17.4z M73.9,17.4h1l0.9-3.2c0.1-0.4,0.2-0.9,0.2-0.9h0c0,0,0.1,0.6,0.1,0.9l0.5,2.2h0.9l1.3-2.2
				c0.2-0.3,0.5-0.9,0.5-0.9h0c0,0-0.1,0.5-0.2,0.9l-0.4,3.2h1l0.6-5.7h-1.1l-1.7,2.8c-0.2,0.3-0.4,0.8-0.4,0.8h0c0,0,0-0.5-0.1-0.8
				l-0.6-2.8h-1.1L73.9,17.4z M81.5,17.4l0.8-1.5h2l0.2,1.5h1l-0.9-5.7h-1.2l-3,5.7H81.5z M82.7,15.1l0.8-1.5
				c0.2-0.3,0.4-0.9,0.4-0.9h0c0,0,0,0.6,0.1,0.9l0.2,1.5H82.7z M87.3,17.4h1l0.9-4.8h1.9l0.2-0.9h-4.7l-0.2,0.9h1.8L87.3,17.4z
				 M90.9,17.4h3.5l0.2-0.9h-2.5l0.3-1.5h1.9l0.2-0.9h-1.9l0.3-1.5h2.4l0.2-0.9H92L90.9,17.4z"/>
			<path id="ANGULAR-Copy-3" class="st2" d="M63.5,36.9h2.7l-5-14.2h-2.7l-5,14.2h2.7l1.2-3.6h5L63.5,36.9z M59.8,25.2
				c0,0,0.3,1.4,0.6,2.2l1.3,3.8h-3.7l1.3-3.8C59.5,26.6,59.8,25.2,59.8,25.2L59.8,25.2z M68,36.9h2.6v-8.2c0-0.8-0.1-2.2-0.1-2.2h0
				c0,0,0.6,1.4,1.2,2.2l5.4,8.2h2.6V22.7H77v8.2c0,0.8,0.1,2.2,0.1,2.2h0c0,0-0.6-1.4-1.2-2.2l-5.4-8.2H68V36.9z M82.2,29.8
				c0,4.5,3.2,7.4,7,7.4c2.6,0,4.1-1.5,4.1-1.5h0c0,0,0,0.3,0,0.6v0.7h2.2v-7.5H91v2.2h2.2v1.7c0,0-1.4,1.5-3.6,1.5
				c-2.7,0-4.8-2-4.8-5.1c0-2.7,1.7-4.9,4.9-4.9c2.3,0,3.8,1.4,3.8,1.4l1.3-1.9c0,0-1.8-1.8-5.3-1.8C85.3,22.5,82.2,25.7,82.2,29.8
				L82.2,29.8z M98.2,31.8c0,3.2,2.3,5.3,5.7,5.3c3.4,0,5.7-2.2,5.7-5.3v-9.1h-2.6v9.1c0,1.9-1.3,3-3.2,3s-3.1-1.1-3.1-3v-9.1h-2.6
				V31.8z M113,36.9h8.7v-2.2h-6.1v-12H113V36.9z M132.1,36.9h2.7l-5-14.2H127l-5,14.2h2.7l1.2-3.6h5L132.1,36.9z M128.4,25.2
				c0,0,0.3,1.4,0.6,2.2l1.3,3.8h-3.7l1.3-3.8C128.1,26.6,128.4,25.2,128.4,25.2L128.4,25.2z M136.6,36.9h2.6v-5.3h2.5l2.8,5.3h2.9
				l-2.9-5.3c-0.3-0.5-0.5-0.7-0.5-0.7v0c1.5-0.6,2.4-2.2,2.4-3.9c0-1.9-0.9-3.2-2.3-3.9c-0.6-0.3-1.3-0.4-2.9-0.4h-4.6V36.9z
				 M139.1,29.4V25h2c2,0,2.6,0.8,2.6,2.2c0,1.4-0.9,2.2-2.2,2.2H139.1z"/>
		</g>
	</g>
</g>
</svg>
