<?xml version="1.0" encoding="utf-8"?>
<!-- Generator: Adobe Illustrator 16.0.0, SVG Export Plug-In . SVG Version: 6.00 Build 0)  -->
<!DOCTYPE svg PUBLIC "-//W3C//DTD SVG 1.1//EN" "http://www.w3.org/Graphics/SVG/1.1/DTD/svg11.dtd">
<svg version="1.1" id="Layer_1" xmlns="http://www.w3.org/2000/svg" xmlns:xlink="http://www.w3.org/1999/xlink" x="0px" y="0px"
	 width="800px" height="60px" viewBox="0 0 800 60" enable-background="new 0 0 800 60" xml:space="preserve">
<rect fill="#212A35" width="800" height="60"/>
<g>
	<path fill="#FFFFFF" d="M58.585,30.879c-0.502-0.88-1.444-1.427-2.458-1.427c-0.489,0-0.972,0.129-1.399,0.372
		c-0.016,0.01-0.03,0.02-0.046,0.029c-0.331-0.318-0.676-0.638-1.031-0.958c1.114-0.947,2.122-1.896,2.996-2.832
		c3.112-3.327,4.202-6.063,3.152-7.911c-0.691-1.215-2.179-1.832-4.423-1.832c-2.215,0-5.091,0.619-8.27,1.732
		c-0.312-1.561-0.684-3.017-1.116-4.33c-1.42-4.313-3.288-6.592-5.399-6.592l-0.05,0.004c-1.556,0.027-2.936,1.292-4.065,3.68
		c-0.132-0.019-0.265-0.031-0.398-0.031c-1.037,0-1.989,0.565-2.484,1.474c-0.747,1.369-0.24,3.09,1.128,3.836
		c0.017,0.009,0.036,0.016,0.053,0.025c-0.094,0.429-0.181,0.869-0.263,1.318c-3.167-1.155-6.021-1.796-8.215-1.796
		c-2.123,0-3.549,0.589-4.238,1.751c-1.085,1.828-0.046,4.584,3.003,7.968c0.978,1.085,2.128,2.192,3.414,3.296
		c-1.185,0.997-2.253,1.998-3.174,2.981c-3.112,3.327-4.202,6.062-3.151,7.911c0.691,1.217,2.179,1.831,4.423,1.831
		c0.246,0,0.501-0.009,0.763-0.022c0.402,1.071,1.435,1.836,2.645,1.836c1.559,0,2.827-1.27,2.827-2.826
		c0-0.021-0.003-0.04-0.003-0.061c0.636-0.187,1.288-0.396,1.955-0.628c0.306,1.517,0.67,3.226,1.09,4.503
		c1.42,4.312,3.287,6.94,5.4,6.94H41.3c2.125-0.212,3.925-2.716,5.204-7.088c0.364-1.245,0.672-2.769,0.922-4.238
		c2.935,1.024,5.578,1.517,7.638,1.517c2.123,0,3.549-0.627,4.238-1.789c0.795-1.34,0.444-3.198-0.999-5.418
		C59.032,33.225,59.185,31.93,58.585,30.879z M55.377,17.821c1.145,0,2.615,0.186,3.119,1.073c0.897,1.58-1.338,5.098-5.987,9.007
		c-1.374-1.156-2.896-2.305-4.528-3.419c-0.137-1.716-0.339-3.374-0.601-4.942C50.475,18.437,53.26,17.821,55.377,17.821z
		 M43.822,33.859c-0.887,0.504-1.774,0.98-2.657,1.432c-1.134-0.585-2.28-1.218-3.424-1.896c-0.843-0.5-1.666-1.014-2.464-1.535
		c-0.058-0.95-0.099-1.926-0.116-2.93c-0.02-1.137-0.011-2.243,0.023-3.312c0.935-0.597,1.916-1.19,2.945-1.775
		c1.053-0.599,2.108-1.16,3.155-1.682c0.776,0.419,1.557,0.861,2.336,1.323c1.021,0.605,1.992,1.218,2.917,1.833
		c0.075,1.092,0.125,2.22,0.146,3.385c0.021,1.169,0.009,2.324-0.03,3.458C45.752,32.73,44.809,33.3,43.822,33.859z M46.563,33.98
		c-0.08,1.248-0.195,2.461-0.346,3.621c-1.1-0.436-2.235-0.933-3.391-1.484c0.579-0.307,1.158-0.624,1.737-0.953
		C45.243,34.777,45.909,34.383,46.563,33.98z M39.5,36.109c-1.219,0.576-2.419,1.095-3.585,1.551
		c-0.202-1.233-0.369-2.546-0.495-3.93c0.511,0.321,1.029,0.641,1.556,0.953C37.817,35.184,38.66,35.658,39.5,36.109z M33.661,28.93
		c0.011,0.631,0.032,1.257,0.06,1.878c-1.01-0.705-1.971-1.419-2.876-2.141c0.872-0.678,1.81-1.363,2.815-2.048
		C33.648,27.382,33.647,28.153,33.661,28.93z M35.269,23.794c0.094-1.523,0.24-2.958,0.43-4.297
		c1.282,0.526,2.607,1.134,3.954,1.812c-0.754,0.391-1.51,0.801-2.264,1.229C36.667,22.947,35.96,23.368,35.269,23.794z
		 M42.943,21.362c1.018-0.47,2.021-0.9,3.001-1.285c0.171,1.06,0.318,2.175,0.435,3.347c-0.652-0.417-1.315-0.828-1.994-1.231
		C43.905,21.909,43.424,21.632,42.943,21.362z M48.182,28.651c-0.014-0.76-0.04-1.513-0.078-2.258
		c1.167,0.829,2.241,1.657,3.222,2.472c-0.964,0.758-2.016,1.526-3.148,2.292C48.194,30.33,48.196,29.494,48.182,28.651z
		 M36.243,16.429c0.969-0.059,1.847-0.604,2.316-1.463c0.361-0.663,0.443-1.427,0.23-2.152c-0.165-0.56-0.493-1.043-0.939-1.402
		c0.844-1.774,1.802-2.768,2.742-2.784c1.843,0,3.894,3.81,5.086,9.951c-1.417,0.546-2.883,1.182-4.367,1.898
		c-1.83-0.96-3.639-1.797-5.374-2.493C36.032,17.446,36.134,16.927,36.243,16.429z M26.177,24.356
		c-2.457-2.727-3.514-5.043-2.828-6.199c0.499-0.84,1.878-1.016,2.948-1.016c2.1,0,4.872,0.642,7.964,1.795
		c-0.273,1.835-0.457,3.802-0.547,5.847c-1.445,0.949-2.805,1.925-4.056,2.912C28.339,26.575,27.166,25.453,26.177,24.356z
		 M32.381,38.876c-0.5-0.801-1.387-1.338-2.399-1.338c-1.387,0-2.542,1.005-2.78,2.323c-0.215,0.012-0.425,0.02-0.627,0.02
		c-1.145,0-2.615-0.188-3.119-1.072c-0.911-1.604,1.404-5.201,6.19-9.179c1.29,1.04,2.695,2.07,4.186,3.069
		c0.141,1.912,0.36,3.759,0.654,5.492C33.766,38.447,33.062,38.676,32.381,38.876z M45.064,43.725
		c-1.03,3.521-2.447,5.486-3.791,6.123h-0.022c-1.833,0-3.872-4.189-5.068-10.279c1.611-0.618,3.285-1.559,4.979-2.394
		c1.65,0.825,3.273,1.647,4.832,2.251C45.746,40.939,45.435,42.454,45.064,43.725z M58.011,38.721
		c-0.498,0.84-1.878,1.016-2.948,1.016c-1.974,0-4.542-0.566-7.41-1.592c0.224-1.631,0.38-3.357,0.464-5.146
		c1.563-1.021,3.027-2.076,4.364-3.141c0.409,0.362,0.798,0.722,1.166,1.077c-0.449,0.832-0.476,1.869,0.026,2.748
		c0.503,0.881,1.444,1.426,2.458,1.426c0.324,0,0.644-0.062,0.948-0.17C58.146,36.585,58.488,37.916,58.011,38.721z"/>
	<g>
		<path fill="#FFFFFF" d="M81.341,40.6c-0.034,0-0.034-0.033-0.034-0.068l-0.034-0.034L71.97,18.356
			c-0.171-0.412,0.035-0.927,0.446-1.099c0.412-0.206,0.927,0,1.099,0.412l8.582,20.46l8.616-20.46
			c0.137-0.412,0.652-0.618,1.064-0.412c0.412,0.172,0.618,0.687,0.446,1.099l-9.303,21.97c-0.034,0.31-0.206,0.584-0.481,0.688
			h-0.034c-0.103,0.033-0.206,0.067-0.309,0.067s-0.24,0-0.309-0.034c-0.034,0-0.034-0.033-0.034-0.033
			C81.547,40.941,81.41,40.805,81.341,40.6z"/>
		<path fill="#FFFFFF" d="M113.505,16.707c6.42,0,11.466,5.458,11.5,12.187c-0.034,6.729-5.08,12.187-11.5,12.187
			c-6.488,0-11.568-5.458-11.603-12.187C101.937,22.166,107.018,16.707,113.505,16.707z M113.505,39.396
			c5.286,0,9.749-4.635,9.784-10.503c-0.035-5.938-4.498-10.47-9.784-10.47c-5.458,0-9.92,4.532-9.92,10.47
			C103.585,34.764,108.047,39.396,113.505,39.396z"/>
		<path fill="#FFFFFF" d="M135.783,17.874c0-0.446,0.376-0.824,0.825-0.824c0.479,0,0.857,0.377,0.857,0.824v13.49
			c0,4.43,3.605,7.999,7.999,8.032c4.462-0.033,8.067-3.604,8.067-8.032v-13.49c0-0.446,0.377-0.824,0.825-0.824
			c0.48,0,0.858,0.377,0.858,0.824v13.49c0,5.356-4.359,9.716-9.75,9.716c-5.319,0-9.68-4.359-9.68-9.716L135.783,17.874
			L135.783,17.874z"/>
		<path fill="#FFFFFF" d="M167.742,39.741l7.725-10.607l-7.725-10.607c-0.31-0.377-0.24-0.927,0.137-1.167
			c0.376-0.309,0.927-0.24,1.167,0.137l7.45,10.229l7.449-10.229c0.31-0.377,0.791-0.446,1.167-0.137
			c0.377,0.24,0.481,0.79,0.173,1.167l-7.759,10.607l7.759,10.607c0.309,0.377,0.206,0.893-0.173,1.167
			c-0.172,0.103-0.309,0.172-0.48,0.172c-0.275,0-0.515-0.139-0.687-0.377l-7.449-10.195l-7.45,10.195
			c-0.137,0.24-0.412,0.377-0.651,0.377c-0.172,0-0.344-0.068-0.516-0.172C167.501,40.634,167.432,40.118,167.742,39.741z"/>
	</g>
</g>
<rect x="777" fill="#121C28" width="23" height="60"/>
<g>
	<path fill="#FFFFFF" d="M792.163,29.337l-4.969,4.97c-0.085,0.084-0.187,0.127-0.303,0.127c-0.114,0-0.217-0.043-0.301-0.127
		l-1.11-1.111c-0.087-0.086-0.129-0.187-0.129-0.303c0-0.115,0.042-0.217,0.129-0.301l3.555-3.556l-3.555-3.556
		c-0.087-0.085-0.129-0.185-0.129-0.301c0-0.116,0.042-0.217,0.129-0.301l1.11-1.112c0.084-0.085,0.187-0.127,0.301-0.127
		c0.116,0,0.218,0.042,0.303,0.127l4.969,4.969c0.085,0.085,0.127,0.186,0.127,0.301C792.29,29.152,792.248,29.252,792.163,29.337z"
		/>
</g>
<g enable-background="new    ">
	<path fill="#FFFFFF" d="M415.533,23.171l5.473-12.118c0.055-0.107,0.145-0.198,0.307-0.198h0.18c0.162,0,0.252,0.091,0.307,0.198
		l5.438,12.118c0.107,0.233-0.036,0.468-0.307,0.468h-0.72c-0.162,0-0.271-0.108-0.306-0.198l-1.333-2.971h-6.392l-1.314,2.971
		c-0.036,0.09-0.145,0.198-0.307,0.198h-0.72C415.568,23.639,415.425,23.404,415.533,23.171z M424.086,19.354
		c-0.883-1.963-1.747-3.943-2.629-5.906h-0.145l-2.629,5.906H424.086z"/>
	<path fill="#FFFFFF" d="M428.637,16.778c0-0.18,0.162-0.342,0.343-0.342h0.342c0.162,0,0.253,0.072,0.288,0.216l0.162,0.559
		c0,0,1.026-0.954,2.521-0.954c2.088,0,2.79,1.368,2.79,3.24v3.8c0,0.18-0.162,0.342-0.342,0.342h-0.576
		c-0.181,0-0.343-0.162-0.343-0.342v-3.8c0-1.368-0.611-2.034-1.62-2.034c-1.351,0-2.322,1.026-2.322,1.026v4.808
		c0,0.18-0.162,0.342-0.343,0.342h-0.558c-0.181,0-0.343-0.162-0.343-0.342V16.778z"/>
	<path fill="#FFFFFF" d="M438.033,21.226c0,0-0.576-0.738-0.576-1.8c0-1.675,1.17-3.169,3.043-3.169h3.043
		c0.197,0,0.342,0.144,0.342,0.342v0.306c0,0.126-0.072,0.288-0.198,0.307l-0.972,0.198c0,0,0.811,0.594,0.811,2.017
		c0,1.638-1.171,3.061-3.025,3.061c-1.152,0-1.711-0.45-1.711-0.45s-0.792,0.36-0.792,1.08c0,0.45,0.324,0.883,0.99,0.883h2.593
		c1.513,0,2.701,0.738,2.701,2.305c0,1.494-1.549,2.917-3.728,2.917c-2.413,0-3.457-1.297-3.457-2.485
		c0-1.08,0.864-1.566,1.044-1.674v-0.055c-0.468-0.126-1.314-0.594-1.314-1.71C436.826,21.928,438.033,21.226,438.033,21.226z
		 M440.535,28.05c1.189,0,2.414-0.666,2.414-1.71c0-0.234-0.109-1.171-1.369-1.171c-0.666,0-1.332,0-1.998,0
		c0,0-1.207,0.324-1.207,1.387C438.375,27.42,439.312,28.05,440.535,28.05z M442.318,19.39c0-1.188-0.721-2.017-1.801-2.017
		c-1.098,0-1.891,0.828-1.891,2.017s0.793,2.017,1.891,2.017C441.598,21.406,442.318,20.578,442.318,19.39z"/>
	<path fill="#FFFFFF" d="M445.719,16.778c0-0.18,0.162-0.342,0.342-0.342h0.576c0.181,0,0.343,0.162,0.343,0.342v3.8
		c0,1.368,0.612,2.034,1.62,2.034c1.369,0,2.143-1.026,2.143-1.026c0-0.396,0-0.811,0-4.808c0-0.18,0.162-0.342,0.343-0.342h0.558
		c0.18,0,0.342,0.162,0.342,0.342v6.519c0,0.18-0.162,0.342-0.342,0.342h-0.342c-0.198,0-0.27-0.126-0.324-0.306l-0.126-0.469
		c0,0-0.847,0.954-2.341,0.954c-2.088,0-2.791-1.35-2.791-3.259V16.778z"/>
	<path fill="#FFFFFF" d="M454.557,11.377c0-0.18,0.162-0.342,0.342-0.342h0.559c0.18,0,0.342,0.162,0.342,0.342v11.92
		c0,0.18-0.162,0.342-0.342,0.342h-0.559c-0.18,0-0.342-0.162-0.342-0.342V11.377z"/>
	<path fill="#FFFFFF" d="M460.731,19.065c0.774,0,1.53,0.234,1.53,0.234c0.018-1.333-0.145-1.945-1.17-1.945
		c-0.99,0-1.837,0.271-2.161,0.396c-0.18,0.072-0.288-0.019-0.342-0.18l-0.144-0.45c-0.072-0.217,0.035-0.324,0.197-0.396
		c0.108-0.054,1.152-0.468,2.503-0.468c1.837,0,2.286,0.936,2.286,3.043v3.997c0,0.18-0.162,0.342-0.342,0.342h-0.342
		c-0.198,0-0.252-0.108-0.307-0.271l-0.144-0.485c-0.378,0.378-1.116,0.936-2.233,0.936c-1.26,0-2.214-0.918-2.214-2.358
		C457.851,20.092,458.877,19.065,460.731,19.065z M460.264,22.738c0.9,0,1.674-0.558,1.98-1.008v-1.423
		c-0.217-0.126-0.721-0.288-1.513-0.288c-1.009,0-1.729,0.504-1.729,1.44C459.003,22.181,459.488,22.738,460.264,22.738z"/>
	<path fill="#FFFFFF" d="M465.933,16.778c0-0.18,0.162-0.342,0.343-0.342h0.342c0.144,0,0.27,0.09,0.306,0.252l0.144,0.522
		c0,0,0.667-0.954,2.161-0.954c0.54,0,1.44,0.09,1.261,0.594l-0.217,0.612c-0.09,0.234-0.252,0.234-0.432,0.162
		c-0.162-0.072-0.432-0.145-0.702-0.145c-1.368,0-1.963,1.009-1.963,1.009v4.808c0,0.18-0.161,0.342-0.342,0.342h-0.558
		c-0.181,0-0.343-0.162-0.343-0.342V16.778z"/>
	<path fill="#FFFFFF" d="M469.1,22.036l0.379-0.432c0.288-0.271,0.432-0.145,0.611,0.054c0.307,0.342,0.955,0.954,1.747,0.954
		c1.081,0,2.196-0.792,2.196-2.701v-8.534c0-0.18,0.145-0.342,0.343-0.342h0.702c0.197,0,0.342,0.162,0.342,0.342v8.499
		c0,2.502-1.512,3.942-3.619,3.942c-1.566,0-2.431-0.954-2.736-1.332C468.975,22.342,468.992,22.162,469.1,22.036z"/>
	<path fill="#FFFFFF" d="M477.74,21.748c0.09-0.108,0.181-0.234,0.271-0.342c0.181-0.234,0.378-0.378,0.63-0.162
		c0.127,0.107,1.441,1.368,3.043,1.368c1.459,0,2.413-0.918,2.413-1.98c0-1.242-1.081-1.98-3.151-2.845
		c-1.98-0.864-3.168-1.675-3.168-3.728c0-1.224,0.972-3.205,3.834-3.205c1.766,0,3.08,0.919,3.08,0.919
		c0.107,0.054,0.323,0.27,0.107,0.612c-0.072,0.107-0.145,0.233-0.217,0.342c-0.161,0.252-0.342,0.324-0.629,0.162
		c-0.127-0.072-1.261-0.828-2.359-0.828c-1.908,0-2.484,1.224-2.484,1.98c0,1.206,0.918,1.908,2.431,2.538
		c2.431,0.991,3.997,1.909,3.997,3.998c0,1.872-1.783,3.24-3.889,3.24c-2.125,0-3.565-1.242-3.8-1.458
		C477.705,22.234,477.524,22.09,477.74,21.748z"/>
	<path fill="#FFFFFF" d="M493.941,19.065c0.773,0,1.53,0.234,1.53,0.234c0.019-1.333-0.144-1.945-1.171-1.945
		c-0.99,0-1.836,0.271-2.16,0.396c-0.18,0.072-0.288-0.019-0.342-0.18l-0.145-0.45c-0.072-0.217,0.036-0.324,0.198-0.396
		c0.108-0.054,1.152-0.468,2.503-0.468c1.836,0,2.287,0.936,2.287,3.043v3.997c0,0.18-0.162,0.342-0.343,0.342h-0.342
		c-0.198,0-0.252-0.108-0.306-0.271l-0.145-0.485c-0.378,0.378-1.116,0.936-2.232,0.936c-1.261,0-2.215-0.918-2.215-2.358
		C491.061,20.092,492.087,19.065,493.941,19.065z M493.473,22.738c0.9,0,1.675-0.558,1.98-1.008v-1.423
		c-0.215-0.126-0.72-0.288-1.512-0.288c-1.008,0-1.729,0.504-1.729,1.44C492.213,22.181,492.699,22.738,493.473,22.738z"/>
	<path fill="#FFFFFF" d="M499.143,16.778c0-0.18,0.162-0.342,0.342-0.342h0.342c0.162,0,0.253,0.072,0.289,0.216l0.162,0.559
		c0,0,1.025-0.954,2.521-0.954c2.089,0,2.79,1.368,2.79,3.24v3.8c0,0.18-0.161,0.342-0.342,0.342h-0.576
		c-0.18,0-0.342-0.162-0.342-0.342v-3.8c0-1.368-0.612-2.034-1.621-2.034c-1.35,0-2.322,1.026-2.322,1.026v4.808
		c0,0.18-0.162,0.342-0.342,0.342h-0.559c-0.18,0-0.342-0.162-0.342-0.342V16.778z"/>
	<path fill="#FFFFFF" d="M510.987,16.257c1.188,0,1.927,0.468,1.927,0.468v-5.348c0-0.18,0.162-0.342,0.342-0.342h0.559
		c0.18,0,0.342,0.162,0.342,0.342v11.92c0,0.18-0.162,0.342-0.342,0.342h-0.379c-0.162,0-0.27-0.126-0.306-0.288l-0.108-0.486
		c0,0-0.863,0.954-2.215,0.954c-1.836,0-3.276-1.729-3.276-3.799C507.53,17.913,508.826,16.257,510.987,16.257z M510.934,22.685
		c1.296,0,1.962-1.188,1.962-1.188v-3.602c0,0-0.756-0.432-1.746-0.432c-1.566,0-2.358,1.135-2.358,2.574
		C508.791,21.442,509.619,22.685,510.934,22.685z"/>
	<path fill="#FFFFFF" d="M519.121,22.036l0.379-0.432c0.287-0.271,0.432-0.145,0.611,0.054c0.307,0.342,0.955,0.954,1.746,0.954
		c1.081,0,2.197-0.792,2.197-2.701v-8.534c0-0.18,0.145-0.342,0.342-0.342h0.703c0.197,0,0.342,0.162,0.342,0.342v8.499
		c0,2.502-1.513,3.942-3.619,3.942c-1.566,0-2.432-0.954-2.737-1.332C518.995,22.342,519.014,22.162,519.121,22.036z"/>
	<path fill="#FFFFFF" d="M530.373,19.065c0.773,0,1.529,0.234,1.529,0.234c0.019-1.333-0.144-1.945-1.17-1.945
		c-0.99,0-1.836,0.271-2.16,0.396c-0.181,0.072-0.289-0.019-0.342-0.18l-0.145-0.45c-0.072-0.217,0.035-0.324,0.197-0.396
		c0.108-0.054,1.152-0.468,2.504-0.468c1.836,0,2.286,0.936,2.286,3.043v3.997c0,0.18-0.162,0.342-0.343,0.342h-0.342
		c-0.197,0-0.252-0.108-0.306-0.271l-0.144-0.485c-0.379,0.378-1.117,0.936-2.233,0.936c-1.261,0-2.214-0.918-2.214-2.358
		C527.492,20.092,528.518,19.065,530.373,19.065z M529.904,22.738c0.9,0,1.674-0.558,1.98-1.008v-1.423
		c-0.216-0.126-0.721-0.288-1.512-0.288c-1.009,0-1.729,0.504-1.729,1.44C528.645,22.181,529.13,22.738,529.904,22.738z"/>
	<path fill="#FFFFFF" d="M534.584,16.851c-0.108-0.234,0-0.414,0.27-0.414h0.559c0.162,0,0.27,0.09,0.324,0.198l2.232,5.149h0.018
		l2.377-5.149c0.054-0.108,0.162-0.198,0.307-0.198h0.468c0.271,0,0.378,0.18,0.271,0.414l-3.08,6.788
		c-0.035,0.09-0.144,0.18-0.306,0.18h-0.09c-0.162,0-0.271-0.09-0.306-0.18L534.584,16.851z"/>
	<path fill="#FFFFFF" d="M545.33,19.065c0.774,0,1.531,0.234,1.531,0.234c0.018-1.333-0.145-1.945-1.171-1.945
		c-0.99,0-1.837,0.271-2.161,0.396c-0.18,0.072-0.287-0.019-0.342-0.18l-0.144-0.45c-0.072-0.217,0.036-0.324,0.198-0.396
		c0.107-0.054,1.152-0.468,2.502-0.468c1.837,0,2.287,0.936,2.287,3.043v3.997c0,0.18-0.162,0.342-0.342,0.342h-0.342
		c-0.199,0-0.253-0.108-0.307-0.271l-0.145-0.485c-0.378,0.378-1.115,0.936-2.232,0.936c-1.26,0-2.215-0.918-2.215-2.358
		C542.449,20.092,543.477,19.065,545.33,19.065z M544.862,22.738c0.9,0,1.675-0.558,1.98-1.008v-1.423
		c-0.216-0.126-0.72-0.288-1.513-0.288c-1.008,0-1.729,0.504-1.729,1.44C543.602,22.181,544.088,22.738,544.862,22.738z"/>
	<path fill="#FFFFFF" d="M550.01,21.748c0.09-0.108,0.18-0.234,0.27-0.342c0.181-0.234,0.379-0.378,0.631-0.162
		c0.126,0.107,1.44,1.368,3.043,1.368c1.458,0,2.412-0.918,2.412-1.98c0-1.242-1.08-1.98-3.15-2.845
		c-1.98-0.864-3.169-1.675-3.169-3.728c0-1.224,0.972-3.205,3.835-3.205c1.765,0,3.079,0.919,3.079,0.919
		c0.108,0.054,0.323,0.27,0.108,0.612c-0.072,0.107-0.145,0.233-0.217,0.342c-0.162,0.252-0.342,0.324-0.63,0.162
		c-0.126-0.072-1.261-0.828-2.358-0.828c-1.909,0-2.485,1.224-2.485,1.98c0,1.206,0.919,1.908,2.431,2.538
		c2.432,0.991,3.998,1.909,3.998,3.998c0,1.872-1.783,3.24-3.89,3.24c-2.125,0-3.565-1.242-3.8-1.458
		C549.974,22.234,549.793,22.09,550.01,21.748z"/>
	<path fill="#FFFFFF" d="M563.024,16.257c1.081,0,1.927,0.432,2.575,1.26c0.125,0.162,0.09,0.378-0.072,0.505l-0.342,0.287
		c-0.271,0.253-0.36,0.072-0.522-0.071c-0.36-0.414-0.954-0.757-1.657-0.757c-1.35,0-2.395,1.117-2.395,2.557
		c0,1.441,1.027,2.594,2.377,2.594c1.08,0,1.494-0.541,1.908-0.937c0.217-0.216,0.343-0.181,0.541-0.036l0.197,0.144
		c0.181,0.126,0.234,0.324,0.127,0.505c-0.541,0.864-1.531,1.512-2.756,1.512c-1.998,0-3.69-1.603-3.69-3.763
		C559.315,17.931,561.062,16.257,563.024,16.257z"/>
	<path fill="#FFFFFF" d="M567.793,16.778c0-0.18,0.162-0.342,0.343-0.342h0.342c0.144,0,0.271,0.09,0.306,0.252l0.145,0.522
		c0,0,0.666-0.954,2.16-0.954c0.541,0,1.441,0.09,1.261,0.594l-0.216,0.612c-0.09,0.234-0.252,0.234-0.432,0.162
		c-0.162-0.072-0.433-0.145-0.703-0.145c-1.368,0-1.962,1.009-1.962,1.009v4.808c0,0.18-0.162,0.342-0.343,0.342h-0.558
		c-0.181,0-0.343-0.162-0.343-0.342V16.778z"/>
	<path fill="#FFFFFF" d="M573.554,12.26c0-0.486,0.378-0.865,0.847-0.865c0.486,0,0.863,0.379,0.863,0.865
		c0,0.468-0.377,0.846-0.863,0.846C573.932,13.105,573.554,12.728,573.554,12.26z M573.806,16.778c0-0.18,0.162-0.342,0.343-0.342
		h0.558c0.181,0,0.342,0.162,0.342,0.342v6.519c0,0.18-0.161,0.342-0.342,0.342h-0.558c-0.181,0-0.343-0.162-0.343-0.342V16.778z"/>
	<path fill="#FFFFFF" d="M578.863,28.698c0,0.18-0.161,0.342-0.342,0.342h-0.558c-0.181,0-0.343-0.162-0.343-0.342v-11.92
		c0-0.18,0.162-0.342,0.343-0.342h0.378c0.162,0,0.216,0.054,0.288,0.234l0.126,0.342c0,0,0.793-0.756,2.089-0.756
		c1.962,0,3.403,1.729,3.403,3.799c0,2.106-1.477,3.763-3.457,3.763c-1.189,0-1.928-0.594-1.928-0.594V28.698z M580.629,22.612
		c1.386,0,2.358-1.134,2.358-2.575c0-1.404-0.828-2.646-2.269-2.646c-1.17,0-1.837,0.883-1.837,0.883v3.709
		C578.882,21.982,579.639,22.612,580.629,22.612z"/>
	<path fill="#FFFFFF" d="M586.748,17.517h-0.919c-0.198,0-0.342-0.162-0.342-0.342v-0.396c0-0.198,0.144-0.342,0.342-0.342h0.919
		v-1.999c0-0.18,0.162-0.342,0.342-0.342l0.576-0.036c0.18,0,0.324,0.162,0.324,0.343v2.034h2.088c0.198,0,0.342,0.144,0.342,0.342
		v0.396c0,0.18-0.144,0.342-0.342,0.342h-2.088v4.214c0,0.72,0.18,0.864,0.594,0.864c0.45,0,1.08-0.271,1.314-0.396
		c0.27-0.144,0.342-0.036,0.432,0.108l0.271,0.45c0.126,0.216,0.072,0.323-0.126,0.45c-0.252,0.161-1.225,0.611-2.07,0.611
		c-1.441,0-1.656-0.864-1.656-1.98V17.517z"/>
	<path fill="#FFFFFF" d="M596.899,17.517h-0.919c-0.197,0-0.342-0.162-0.342-0.342v-0.396c0-0.198,0.145-0.342,0.342-0.342h0.919
		v-1.999c0-0.18,0.162-0.342,0.342-0.342l0.576-0.036c0.181,0,0.324,0.162,0.324,0.343v2.034h2.089c0.197,0,0.342,0.144,0.342,0.342
		v0.396c0,0.18-0.145,0.342-0.342,0.342h-2.089v4.214c0,0.72,0.181,0.864,0.595,0.864c0.449,0,1.08-0.271,1.314-0.396
		c0.27-0.144,0.342-0.036,0.432,0.108l0.27,0.45c0.127,0.216,0.072,0.323-0.125,0.45c-0.252,0.161-1.225,0.611-2.071,0.611
		c-1.44,0-1.656-0.864-1.656-1.98V17.517z"/>
	<path fill="#FFFFFF" d="M602.587,16.778c0-0.18,0.162-0.342,0.343-0.342h0.342c0.144,0,0.27,0.09,0.306,0.252l0.144,0.522
		c0,0,0.667-0.954,2.161-0.954c0.54,0,1.44,0.09,1.261,0.594l-0.217,0.612c-0.09,0.234-0.252,0.234-0.432,0.162
		c-0.162-0.072-0.432-0.145-0.702-0.145c-1.368,0-1.963,1.009-1.963,1.009v4.808c0,0.18-0.161,0.342-0.342,0.342h-0.558
		c-0.181,0-0.343-0.162-0.343-0.342V16.778z"/>
	<path fill="#FFFFFF" d="M610.957,19.065c0.774,0,1.531,0.234,1.531,0.234c0.018-1.333-0.145-1.945-1.171-1.945
		c-0.99,0-1.837,0.271-2.161,0.396c-0.18,0.072-0.287-0.019-0.342-0.18l-0.144-0.45c-0.072-0.217,0.036-0.324,0.198-0.396
		c0.107-0.054,1.152-0.468,2.502-0.468c1.837,0,2.287,0.936,2.287,3.043v3.997c0,0.18-0.162,0.342-0.342,0.342h-0.342
		c-0.199,0-0.253-0.108-0.307-0.271l-0.145-0.485c-0.378,0.378-1.115,0.936-2.232,0.936c-1.26,0-2.215-0.918-2.215-2.358
		C608.076,20.092,609.104,19.065,610.957,19.065z M610.489,22.738c0.9,0,1.675-0.558,1.98-1.008v-1.423
		c-0.216-0.126-0.72-0.288-1.513-0.288c-1.008,0-1.729,0.504-1.729,1.44C609.229,22.181,609.715,22.738,610.489,22.738z"/>
	<path fill="#FFFFFF" d="M615.906,12.26c0-0.486,0.379-0.865,0.847-0.865c0.486,0,0.864,0.379,0.864,0.865
		c0,0.468-0.378,0.846-0.864,0.846C616.285,13.105,615.906,12.728,615.906,12.26z M616.158,16.778c0-0.18,0.162-0.342,0.343-0.342
		h0.558c0.181,0,0.343,0.162,0.343,0.342v6.519c0,0.18-0.162,0.342-0.343,0.342h-0.558c-0.181,0-0.343-0.162-0.343-0.342V16.778z"/>
	<path fill="#FFFFFF" d="M619.957,16.778c0-0.18,0.162-0.342,0.342-0.342h0.342c0.162,0,0.253,0.072,0.289,0.216l0.162,0.559
		c0,0,1.025-0.954,2.521-0.954c2.089,0,2.79,1.368,2.79,3.24v3.8c0,0.18-0.161,0.342-0.342,0.342h-0.576
		c-0.18,0-0.342-0.162-0.342-0.342v-3.8c0-1.368-0.612-2.034-1.621-2.034c-1.35,0-2.322,1.026-2.322,1.026v4.808
		c0,0.18-0.162,0.342-0.342,0.342h-0.559c-0.18,0-0.342-0.162-0.342-0.342V16.778z"/>
	<path fill="#FFFFFF" d="M628.615,12.26c0-0.486,0.377-0.865,0.846-0.865c0.486,0,0.864,0.379,0.864,0.865
		c0,0.468-0.378,0.846-0.864,0.846C628.992,13.105,628.615,12.728,628.615,12.26z M628.867,16.778c0-0.18,0.162-0.342,0.342-0.342
		h0.559c0.18,0,0.342,0.162,0.342,0.342v6.519c0,0.18-0.162,0.342-0.342,0.342h-0.559c-0.18,0-0.342-0.162-0.342-0.342V16.778z"/>
	<path fill="#FFFFFF" d="M632.664,16.778c0-0.18,0.162-0.342,0.343-0.342h0.342c0.162,0,0.253,0.072,0.288,0.216l0.162,0.559
		c0,0,1.026-0.954,2.521-0.954c2.088,0,2.79,1.368,2.79,3.24v3.8c0,0.18-0.162,0.342-0.342,0.342h-0.576
		c-0.181,0-0.343-0.162-0.343-0.342v-3.8c0-1.368-0.611-2.034-1.62-2.034c-1.351,0-2.322,1.026-2.322,1.026v4.808
		c0,0.18-0.162,0.342-0.343,0.342h-0.558c-0.181,0-0.343-0.162-0.343-0.342V16.778z"/>
	<path fill="#FFFFFF" d="M642.061,21.226c0,0-0.576-0.738-0.576-1.8c0-1.675,1.171-3.169,3.043-3.169h3.043
		c0.198,0,0.342,0.144,0.342,0.342v0.306c0,0.126-0.071,0.288-0.197,0.307l-0.973,0.198c0,0,0.811,0.594,0.811,2.017
		c0,1.638-1.17,3.061-3.025,3.061c-1.152,0-1.71-0.45-1.71-0.45s-0.792,0.36-0.792,1.08c0,0.45,0.324,0.883,0.99,0.883h2.592
		c1.514,0,2.701,0.738,2.701,2.305c0,1.494-1.549,2.917-3.727,2.917c-2.413,0-3.457-1.297-3.457-2.485
		c0-1.08,0.863-1.566,1.044-1.674v-0.055c-0.468-0.126-1.314-0.594-1.314-1.71C640.854,21.928,642.061,21.226,642.061,21.226z
		 M644.563,28.05c1.188,0,2.413-0.666,2.413-1.71c0-0.234-0.108-1.171-1.369-1.171c-0.666,0-1.332,0-1.998,0
		c0,0-1.207,0.324-1.207,1.387C642.402,27.42,643.34,28.05,644.563,28.05z M646.346,19.39c0-1.188-0.72-2.017-1.8-2.017
		c-1.099,0-1.891,0.828-1.891,2.017s0.792,2.017,1.891,2.017C645.626,21.406,646.346,20.578,646.346,19.39z"/>
	<path fill="#FFFFFF" d="M653.851,11.377c0-0.18,0.162-0.342,0.343-0.342h0.558c0.18,0,0.342,0.162,0.342,0.342v5.348
		c0,0,0.738-0.468,1.927-0.468c2.16,0,3.457,1.656,3.457,3.763c0,2.07-1.44,3.799-3.277,3.799c-1.35,0-2.215-0.954-2.215-0.954
		l-0.107,0.486c-0.036,0.162-0.145,0.288-0.307,0.288h-0.377c-0.181,0-0.343-0.162-0.343-0.342V11.377z M657.074,22.685
		c1.313,0,2.143-1.242,2.143-2.647c0-1.439-0.793-2.574-2.359-2.574c-0.99,0-1.746,0.432-1.746,0.432v3.602
		C655.111,21.496,655.777,22.685,657.074,22.685z"/>
	<path fill="#FFFFFF" d="M661.482,16.833c-0.108-0.234,0-0.396,0.27-0.396h0.793c0.144,0,0.252,0.09,0.306,0.198l2.665,5.51h0.018
		l2.521-5.51c0.053-0.108,0.18-0.198,0.306-0.198h0.685c0.27,0,0.396,0.18,0.27,0.414l-5.527,11.974
		c-0.055,0.108-0.181,0.216-0.307,0.216h-0.666c-0.27,0-0.414-0.198-0.288-0.45l2.305-4.969L661.482,16.833z"/>
	<path fill="#FFFFFF" d="M677.232,12.241H674.1c-0.198,0-0.342-0.162-0.342-0.342v-0.522c0-0.18,0.144-0.342,0.342-0.342h7.635
		c0.197,0,0.342,0.162,0.342,0.342v0.522c0,0.18-0.145,0.342-0.342,0.342h-3.134v11.056c0,0.18-0.162,0.342-0.342,0.342h-0.685
		c-0.18,0-0.342-0.162-0.342-0.342V12.241z"/>
	<path fill="#FFFFFF" d="M685.297,16.257c1.998,0,3.583,1.729,3.583,3.763c0,2.07-1.585,3.799-3.583,3.799s-3.583-1.729-3.583-3.799
		C681.714,17.985,683.299,16.257,685.297,16.257z M685.297,22.648c1.314,0,2.341-1.17,2.341-2.629c0-1.422-1.026-2.574-2.341-2.574
		s-2.341,1.152-2.341,2.574C682.956,21.479,683.982,22.648,685.297,22.648z"/>
	<path fill="#FFFFFF" d="M693.847,16.257c1.188,0,1.927,0.468,1.927,0.468v-5.348c0-0.18,0.162-0.342,0.342-0.342h0.559
		c0.18,0,0.342,0.162,0.342,0.342v11.92c0,0.18-0.162,0.342-0.342,0.342h-0.379c-0.162,0-0.27-0.126-0.306-0.288l-0.108-0.486
		c0,0-0.863,0.954-2.215,0.954c-1.836,0-3.276-1.729-3.276-3.799C690.39,17.913,691.686,16.257,693.847,16.257z M693.793,22.685
		c1.296,0,1.962-1.188,1.962-1.188v-3.602c0,0-0.756-0.432-1.746-0.432c-1.566,0-2.358,1.135-2.358,2.574
		C691.65,21.442,692.479,22.685,693.793,22.685z"/>
	<path fill="#FFFFFF" d="M702.522,16.257c1.188,0,1.927,0.468,1.927,0.468v-5.348c0-0.18,0.162-0.342,0.342-0.342h0.559
		c0.18,0,0.342,0.162,0.342,0.342v11.92c0,0.18-0.162,0.342-0.342,0.342h-0.379c-0.162,0-0.27-0.126-0.306-0.288l-0.108-0.486
		c0,0-0.863,0.954-2.215,0.954c-1.836,0-3.276-1.729-3.276-3.799C699.065,17.913,700.361,16.257,702.522,16.257z M702.469,22.685
		c1.296,0,1.962-1.188,1.962-1.188v-3.602c0,0-0.756-0.432-1.746-0.432c-1.566,0-2.358,1.135-2.358,2.574
		C700.326,21.442,701.154,22.685,702.469,22.685z"/>
	<path fill="#FFFFFF" d="M714.24,11.107c0.035-0.145,0.18-0.253,0.324-0.253h0.287c0.127,0,0.271,0.091,0.307,0.198l3.564,9.921
		c0.037,0,0.055,0,0.091,0l3.511-9.921c0.036-0.107,0.18-0.198,0.307-0.198h0.287c0.145,0,0.289,0.108,0.324,0.253l2.323,12.1
		c0.054,0.252-0.054,0.432-0.324,0.432h-0.72c-0.145,0-0.289-0.126-0.324-0.252l-1.604-9.272c-0.018,0-0.053,0-0.071,0l-3.313,9.507
		c-0.035,0.107-0.197,0.197-0.306,0.197h-0.324c-0.108,0-0.271-0.09-0.306-0.197l-3.35-9.507c-0.018,0-0.054,0-0.072,0l-1.566,9.272
		c-0.018,0.126-0.18,0.252-0.324,0.252h-0.72c-0.271,0-0.378-0.18-0.324-0.432L714.24,11.107z"/>
	<path fill="#FFFFFF" d="M730.674,16.257c1.999,0,3.584,1.729,3.584,3.763c0,2.07-1.585,3.799-3.584,3.799
		c-1.998,0-3.582-1.729-3.582-3.799C727.092,17.985,728.676,16.257,730.674,16.257z M730.674,22.648c1.314,0,2.342-1.17,2.342-2.629
		c0-1.422-1.027-2.574-2.342-2.574s-2.34,1.152-2.34,2.574C728.334,21.479,729.359,22.648,730.674,22.648z"/>
	<path fill="#FFFFFF" d="M736.758,17.517h-0.918c-0.198,0-0.342-0.162-0.342-0.342v-0.396c0-0.198,0.144-0.342,0.342-0.342h0.918
		v-1.999c0-0.18,0.162-0.342,0.342-0.342l0.576-0.036c0.18,0,0.324,0.162,0.324,0.343v2.034h2.089c0.198,0,0.342,0.144,0.342,0.342
		v0.396c0,0.18-0.144,0.342-0.342,0.342H738v4.214c0,0.72,0.18,0.864,0.594,0.864c0.451,0,1.081-0.271,1.314-0.396
		c0.271-0.144,0.343-0.036,0.433,0.108l0.271,0.45c0.125,0.216,0.072,0.323-0.127,0.45c-0.252,0.161-1.224,0.611-2.07,0.611
		c-1.44,0-1.656-0.864-1.656-1.98V17.517z"/>
	<path fill="#FFFFFF" d="M742.914,17.517h-0.919c-0.198,0-0.342-0.162-0.342-0.342v-0.396c0-0.198,0.144-0.342,0.342-0.342h0.919
		v-1.999c0-0.18,0.162-0.342,0.342-0.342l0.576-0.036c0.18,0,0.324,0.162,0.324,0.343v2.034h2.088c0.198,0,0.342,0.144,0.342,0.342
		v0.396c0,0.18-0.144,0.342-0.342,0.342h-2.088v4.214c0,0.72,0.18,0.864,0.594,0.864c0.45,0,1.08-0.271,1.314-0.396
		c0.27-0.144,0.342-0.036,0.432,0.108l0.271,0.45c0.126,0.216,0.072,0.323-0.126,0.45c-0.252,0.161-1.225,0.611-2.07,0.611
		c-1.441,0-1.656-0.864-1.656-1.98V17.517z"/>
	<path fill="#FFFFFF" d="M751.662,16.257c1.998,0,3.583,1.729,3.583,3.763c0,2.07-1.585,3.799-3.583,3.799s-3.583-1.729-3.583-3.799
		C748.079,17.985,749.664,16.257,751.662,16.257z M751.662,22.648c1.314,0,2.341-1.17,2.341-2.629c0-1.422-1.026-2.574-2.341-2.574
		s-2.341,1.152-2.341,2.574C749.321,21.479,750.348,22.648,751.662,22.648z"/>
	<path fill="#FFFFFF" d="M758.033,21.766c0.576,0,1.027,0.45,1.027,1.026c0,0.559-0.451,1.026-1.027,1.026
		c-0.558,0-1.025-0.468-1.025-1.026C757.008,22.216,757.476,21.766,758.033,21.766z"/>
</g>
<g enable-background="new    ">
	<path fill="#FFFFFF" d="M521.299,33.066c-0.072-0.252,0.072-0.432,0.324-0.432h0.756c0.145,0,0.289,0.126,0.324,0.252l2.503,9.326
		h0.072l3.007-9.561c0.036-0.107,0.145-0.198,0.307-0.198h0.323c0.145,0,0.271,0.091,0.306,0.198l3.062,9.561h0.072l2.448-9.326
		c0.036-0.126,0.18-0.252,0.324-0.252h0.756c0.252,0,0.396,0.18,0.324,0.432l-3.402,12.1c-0.036,0.145-0.18,0.252-0.324,0.252
		h-0.288c-0.126,0-0.252-0.09-0.306-0.197l-3.115-9.741h-0.09l-3.062,9.741c-0.054,0.107-0.18,0.197-0.306,0.197h-0.288
		c-0.145,0-0.288-0.107-0.324-0.252L521.299,33.066z"/>
	<path fill="#FFFFFF" d="M540.272,37.856c1.999,0,3.583,1.729,3.583,3.763c0,2.07-1.584,3.799-3.583,3.799s-3.583-1.729-3.583-3.799
		C536.689,39.585,538.273,37.856,540.272,37.856z M540.272,44.248c1.314,0,2.341-1.17,2.341-2.629c0-1.422-1.026-2.574-2.341-2.574
		s-2.341,1.152-2.341,2.574C537.932,43.078,538.958,44.248,540.272,44.248z"/>
	<path fill="#FFFFFF" d="M545.887,38.378c0-0.18,0.162-0.342,0.343-0.342h0.342c0.144,0,0.271,0.09,0.306,0.252l0.145,0.522
		c0,0,0.666-0.954,2.16-0.954c0.541,0,1.441,0.09,1.261,0.594l-0.216,0.612c-0.09,0.234-0.252,0.234-0.432,0.162
		c-0.162-0.072-0.433-0.145-0.703-0.145c-1.368,0-1.962,1.009-1.962,1.009v4.808c0,0.18-0.162,0.342-0.343,0.342h-0.558
		c-0.181,0-0.343-0.162-0.343-0.342V38.378z"/>
	<path fill="#FFFFFF" d="M551.917,32.977c0-0.18,0.162-0.342,0.343-0.342h0.558c0.18,0,0.342,0.162,0.342,0.342v7.797l3.062-2.521
		c0.144-0.126,0.287-0.216,0.432-0.216h0.973c0.306,0,0.287,0.342,0.162,0.45l-3.422,2.736l3.979,3.565
		c0.144,0.126,0.126,0.45-0.18,0.45h-0.99c-0.162,0-0.288-0.09-0.36-0.145l-3.655-3.475v3.277c0,0.18-0.162,0.342-0.342,0.342
		h-0.558c-0.181,0-0.343-0.162-0.343-0.342V32.977z"/>
	<path fill="#FFFFFF" d="M559.531,44.23c0.072-0.108,0.197-0.36,0.252-0.45c0.09-0.145,0.287-0.181,0.486-0.055
		c0,0,0.773,0.631,1.691,0.631c0.738,0,1.171-0.379,1.171-0.864c0-0.631-0.54-0.919-1.585-1.44
		c-0.953-0.469-2.053-1.099-2.053-2.323c0-0.756,0.613-1.872,2.287-1.872c0.937,0,1.656,0.323,1.999,0.558
		c0.162,0.108,0.216,0.36,0.108,0.559l-0.145,0.288c-0.107,0.198-0.36,0.252-0.522,0.162c0,0-0.774-0.433-1.44-0.433
		c-0.811,0-1.025,0.414-1.025,0.721c0,0.594,0.594,0.864,1.332,1.224c1.242,0.595,2.358,1.152,2.358,2.449
		c0,1.044-1.009,2.034-2.485,2.034c-1.205,0-1.943-0.504-2.34-0.81C559.531,44.536,559.477,44.356,559.531,44.23z"/>
	<path fill="#FFFFFF" d="M566.389,32.977c0-0.18,0.162-0.342,0.343-0.342h0.558c0.181,0,0.342,0.162,0.342,0.342v5.834
		c0,0,0.955-0.954,2.414-0.954c1.781,0,2.79,1.134,2.79,3.24v3.8c0,0.18-0.162,0.342-0.342,0.342h-0.576
		c-0.181,0-0.343-0.162-0.343-0.342v-3.8c0-1.368-0.611-2.034-1.62-2.034c-1.368,0-2.323,1.008-2.323,1.008v4.826
		c0,0.18-0.161,0.342-0.342,0.342h-0.558c-0.181,0-0.343-0.162-0.343-0.342V32.977z"/>
	<path fill="#FFFFFF" d="M578.359,37.856c1.999,0,3.584,1.729,3.584,3.763c0,2.07-1.585,3.799-3.584,3.799
		c-1.998,0-3.582-1.729-3.582-3.799C574.777,39.585,576.361,37.856,578.359,37.856z M578.359,44.248c1.314,0,2.342-1.17,2.342-2.629
		c0-1.422-1.027-2.574-2.342-2.574s-2.34,1.152-2.34,2.574C576.02,43.078,577.045,44.248,578.359,44.248z"/>
	<path fill="#FFFFFF" d="M585.234,50.298c0,0.18-0.161,0.342-0.342,0.342h-0.558c-0.181,0-0.343-0.162-0.343-0.342v-11.92
		c0-0.18,0.162-0.342,0.343-0.342h0.378c0.162,0,0.216,0.054,0.288,0.234l0.126,0.342c0,0,0.793-0.756,2.089-0.756
		c1.962,0,3.403,1.729,3.403,3.799c0,2.106-1.477,3.763-3.457,3.763c-1.189,0-1.928-0.594-1.928-0.594V50.298z M587,44.212
		c1.386,0,2.358-1.134,2.358-2.575c0-1.404-0.828-2.646-2.269-2.646c-1.17,0-1.837,0.883-1.837,0.883v3.709
		C585.253,43.582,586.01,44.212,587,44.212z"/>
	<path fill="#FFFFFF" d="M592.219,44.23c0.072-0.108,0.197-0.36,0.252-0.45c0.09-0.145,0.287-0.181,0.486-0.055
		c0,0,0.773,0.631,1.691,0.631c0.738,0,1.171-0.379,1.171-0.864c0-0.631-0.54-0.919-1.585-1.44
		c-0.953-0.469-2.053-1.099-2.053-2.323c0-0.756,0.613-1.872,2.287-1.872c0.937,0,1.656,0.323,1.999,0.558
		c0.162,0.108,0.216,0.36,0.108,0.559l-0.145,0.288c-0.107,0.198-0.36,0.252-0.522,0.162c0,0-0.774-0.433-1.44-0.433
		c-0.811,0-1.025,0.414-1.025,0.721c0,0.594,0.594,0.864,1.332,1.224c1.242,0.595,2.358,1.152,2.358,2.449
		c0,1.044-1.009,2.034-2.485,2.034c-1.205,0-1.943-0.504-2.34-0.81C592.219,44.536,592.164,44.356,592.219,44.23z"/>
	<path fill="#FFFFFF" d="M605.412,40.665c0.774,0,1.531,0.234,1.531,0.234c0.018-1.333-0.145-1.945-1.171-1.945
		c-0.99,0-1.837,0.271-2.161,0.396c-0.18,0.072-0.287-0.019-0.342-0.18l-0.144-0.45c-0.072-0.217,0.036-0.324,0.198-0.396
		c0.107-0.054,1.152-0.468,2.502-0.468c1.837,0,2.287,0.936,2.287,3.043v3.997c0,0.18-0.162,0.342-0.342,0.342h-0.342
		c-0.199,0-0.253-0.108-0.307-0.271l-0.145-0.485c-0.378,0.378-1.115,0.936-2.232,0.936c-1.26,0-2.215-0.918-2.215-2.358
		C602.531,41.691,603.559,40.665,605.412,40.665z M604.944,44.338c0.9,0,1.675-0.558,1.98-1.008v-1.423
		c-0.216-0.126-0.72-0.288-1.513-0.288c-1.008,0-1.729,0.504-1.729,1.44C603.684,43.78,604.17,44.338,604.944,44.338z"/>
	<path fill="#FFFFFF" d="M610.613,38.378c0-0.18,0.162-0.342,0.343-0.342h0.342c0.162,0,0.253,0.072,0.288,0.216l0.162,0.559
		c0,0,1.026-0.954,2.521-0.954c2.088,0,2.79,1.368,2.79,3.24v3.8c0,0.18-0.162,0.342-0.342,0.342h-0.576
		c-0.181,0-0.343-0.162-0.343-0.342v-3.8c0-1.368-0.611-2.034-1.62-2.034c-1.351,0-2.322,1.026-2.322,1.026v4.808
		c0,0.18-0.162,0.342-0.343,0.342h-0.558c-0.181,0-0.343-0.162-0.343-0.342V38.378z"/>
	<path fill="#FFFFFF" d="M622.459,37.856c1.188,0,1.926,0.468,1.926,0.468v-5.348c0-0.18,0.162-0.342,0.343-0.342h0.558
		c0.181,0,0.343,0.162,0.343,0.342v11.92c0,0.18-0.162,0.342-0.343,0.342h-0.377c-0.162,0-0.271-0.126-0.307-0.288l-0.107-0.486
		c0,0-0.865,0.954-2.215,0.954c-1.837,0-3.277-1.729-3.277-3.799C619.002,39.513,620.299,37.856,622.459,37.856z M622.404,44.284
		c1.297,0,1.963-1.188,1.963-1.188v-3.602c0,0-0.756-0.432-1.746-0.432c-1.566,0-2.359,1.135-2.359,2.574
		C620.262,43.042,621.09,44.284,622.404,44.284z"/>
	<path fill="#FFFFFF" d="M633.455,50.298c0,0.18-0.161,0.342-0.342,0.342h-0.558c-0.181,0-0.343-0.162-0.343-0.342v-11.92
		c0-0.18,0.162-0.342,0.343-0.342h0.378c0.162,0,0.216,0.054,0.288,0.234l0.126,0.342c0,0,0.793-0.756,2.089-0.756
		c1.962,0,3.403,1.729,3.403,3.799c0,2.106-1.477,3.763-3.457,3.763c-1.189,0-1.928-0.594-1.928-0.594V50.298z M635.221,44.212
		c1.386,0,2.358-1.134,2.358-2.575c0-1.404-0.828-2.646-2.269-2.646c-1.17,0-1.837,0.883-1.837,0.883v3.709
		C633.474,43.582,634.23,44.212,635.221,44.212z"/>
	<path fill="#FFFFFF" d="M643.23,40.665c0.773,0,1.53,0.234,1.53,0.234c0.019-1.333-0.144-1.945-1.171-1.945
		c-0.99,0-1.836,0.271-2.16,0.396c-0.18,0.072-0.288-0.019-0.342-0.18l-0.145-0.45c-0.072-0.217,0.036-0.324,0.198-0.396
		c0.108-0.054,1.152-0.468,2.503-0.468c1.836,0,2.287,0.936,2.287,3.043v3.997c0,0.18-0.162,0.342-0.343,0.342h-0.342
		c-0.198,0-0.252-0.108-0.306-0.271l-0.145-0.485c-0.378,0.378-1.116,0.936-2.232,0.936c-1.261,0-2.215-0.918-2.215-2.358
		C640.35,41.691,641.376,40.665,643.23,40.665z M642.762,44.338c0.9,0,1.675-0.558,1.98-1.008v-1.423
		c-0.215-0.126-0.72-0.288-1.512-0.288c-1.008,0-1.729,0.504-1.729,1.44C641.502,43.78,641.988,44.338,642.762,44.338z"/>
	<path fill="#FFFFFF" d="M648.18,33.859c0-0.486,0.377-0.865,0.846-0.865c0.486,0,0.864,0.379,0.864,0.865
		c0,0.468-0.378,0.846-0.864,0.846C648.557,34.705,648.18,34.327,648.18,33.859z M648.432,38.378c0-0.18,0.162-0.342,0.342-0.342
		h0.559c0.18,0,0.342,0.162,0.342,0.342v6.519c0,0.18-0.162,0.342-0.342,0.342h-0.559c-0.18,0-0.342-0.162-0.342-0.342V38.378z"/>
	<path fill="#FFFFFF" d="M652.229,38.378c0-0.18,0.162-0.342,0.343-0.342h0.342c0.144,0,0.27,0.09,0.306,0.252l0.144,0.522
		c0,0,0.667-0.954,2.161-0.954c0.54,0,1.44,0.09,1.261,0.594l-0.217,0.612c-0.09,0.234-0.252,0.234-0.432,0.162
		c-0.162-0.072-0.432-0.145-0.702-0.145c-1.368,0-1.963,1.009-1.963,1.009v4.808c0,0.18-0.161,0.342-0.342,0.342h-0.558
		c-0.181,0-0.343-0.162-0.343-0.342V38.378z"/>
	<path fill="#FFFFFF" d="M658.457,40.953v-0.342c0-0.198,0.145-0.343,0.342-0.343h3.764c0.198,0,0.342,0.145,0.342,0.343v0.342
		c0,0.18-0.144,0.324-0.342,0.324h-3.764C658.602,41.277,658.457,41.133,658.457,40.953z"/>
	<path fill="#FFFFFF" d="M666.936,50.298c0,0.18-0.162,0.342-0.342,0.342h-0.559c-0.18,0-0.342-0.162-0.342-0.342v-11.92
		c0-0.18,0.162-0.342,0.342-0.342h0.379c0.162,0,0.216,0.054,0.287,0.234l0.127,0.342c0,0,0.792-0.756,2.088-0.756
		c1.963,0,3.403,1.729,3.403,3.799c0,2.106-1.477,3.763-3.457,3.763c-1.188,0-1.927-0.594-1.927-0.594V50.298z M668.7,44.212
		c1.387,0,2.358-1.134,2.358-2.575c0-1.404-0.828-2.646-2.269-2.646c-1.17,0-1.837,0.883-1.837,0.883v3.709
		C666.953,43.582,667.71,44.212,668.7,44.212z"/>
	<path fill="#FFFFFF" d="M674.352,38.378c0-0.18,0.162-0.342,0.342-0.342h0.342c0.145,0,0.271,0.09,0.307,0.252l0.144,0.522
		c0,0,0.667-0.954,2.161-0.954c0.54,0,1.439,0.09,1.26,0.594l-0.216,0.612c-0.09,0.234-0.252,0.234-0.433,0.162
		c-0.162-0.072-0.432-0.145-0.701-0.145c-1.369,0-1.963,1.009-1.963,1.009v4.808c0,0.18-0.162,0.342-0.342,0.342h-0.559
		c-0.18,0-0.342-0.162-0.342-0.342V38.378z"/>
	<path fill="#FFFFFF" d="M683.37,37.856c1.999,0,3.583,1.729,3.583,3.763c0,2.07-1.584,3.799-3.583,3.799s-3.583-1.729-3.583-3.799
		C679.787,39.585,681.371,37.856,683.37,37.856z M683.37,44.248c1.314,0,2.341-1.17,2.341-2.629c0-1.422-1.026-2.574-2.341-2.574
		s-2.341,1.152-2.341,2.574C681.029,43.078,682.056,44.248,683.37,44.248z"/>
	<path fill="#FFFFFF" d="M689.472,42.825c0,0-0.576-0.738-0.576-1.8c0-1.675,1.171-3.169,3.043-3.169h3.043
		c0.198,0,0.342,0.144,0.342,0.342v0.306c0,0.126-0.071,0.288-0.198,0.307l-0.973,0.198c0,0,0.811,0.594,0.811,2.017
		c0,1.638-1.17,3.061-3.024,3.061c-1.152,0-1.711-0.45-1.711-0.45s-0.792,0.36-0.792,1.08c0,0.45,0.324,0.883,0.99,0.883h2.593
		c1.513,0,2.7,0.738,2.7,2.305c0,1.494-1.548,2.917-3.727,2.917c-2.412,0-3.457-1.297-3.457-2.485c0-1.08,0.864-1.566,1.045-1.674
		v-0.055c-0.469-0.126-1.314-0.594-1.314-1.71C688.266,43.527,689.472,42.825,689.472,42.825z M691.975,49.649
		c1.188,0,2.412-0.666,2.412-1.71c0-0.234-0.107-1.171-1.368-1.171c-0.666,0-1.333,0-1.999,0c0,0-1.206,0.324-1.206,1.387
		C689.813,49.02,690.75,49.649,691.975,49.649z M693.757,40.989c0-1.188-0.72-2.017-1.801-2.017c-1.099,0-1.89,0.828-1.89,2.017
		s0.791,2.017,1.89,2.017C693.037,43.006,693.757,42.178,693.757,40.989z"/>
	<path fill="#FFFFFF" d="M697.247,38.378c0-0.18,0.162-0.342,0.343-0.342h0.342c0.144,0,0.27,0.09,0.306,0.252l0.144,0.522
		c0,0,0.667-0.954,2.161-0.954c0.54,0,1.44,0.09,1.261,0.594l-0.217,0.612c-0.09,0.234-0.252,0.234-0.432,0.162
		c-0.162-0.072-0.432-0.145-0.702-0.145c-1.368,0-1.963,1.009-1.963,1.009v4.808c0,0.18-0.161,0.342-0.342,0.342h-0.558
		c-0.181,0-0.343-0.162-0.343-0.342V38.378z"/>
	<path fill="#FFFFFF" d="M705.618,40.665c0.774,0,1.53,0.234,1.53,0.234c0.018-1.333-0.145-1.945-1.17-1.945
		c-0.99,0-1.837,0.271-2.161,0.396c-0.18,0.072-0.288-0.019-0.342-0.18l-0.144-0.45c-0.072-0.217,0.035-0.324,0.197-0.396
		c0.108-0.054,1.152-0.468,2.503-0.468c1.837,0,2.286,0.936,2.286,3.043v3.997c0,0.18-0.162,0.342-0.342,0.342h-0.342
		c-0.198,0-0.252-0.108-0.307-0.271l-0.144-0.485c-0.378,0.378-1.116,0.936-2.233,0.936c-1.26,0-2.214-0.918-2.214-2.358
		C702.737,41.691,703.764,40.665,705.618,40.665z M705.15,44.338c0.9,0,1.674-0.558,1.98-1.008v-1.423
		c-0.217-0.126-0.721-0.288-1.513-0.288c-1.009,0-1.729,0.504-1.729,1.44C703.89,43.78,704.375,44.338,705.15,44.338z"/>
	<path fill="#FFFFFF" d="M710.819,38.378c0-0.18,0.162-0.342,0.343-0.342h0.342c0.162,0,0.252,0.072,0.287,0.216l0.162,0.559
		c0,0,0.847-0.954,2.342-0.954c1.062,0,1.836,0.414,2.305,1.17c0.09-0.072,1.242-1.17,2.682-1.17c2.09,0,2.791,1.368,2.791,3.24v3.8
		c0,0.18-0.162,0.342-0.342,0.342h-0.576c-0.18,0-0.342-0.162-0.342-0.342v-3.8c0-1.35-0.576-2.034-1.621-2.034
		c-1.17,0-1.944,0.774-2.196,1.008c0.054,0.307,0.091,0.648,0.091,1.026v3.8c0,0.18-0.162,0.342-0.343,0.342h-0.576
		c-0.181,0-0.343-0.162-0.343-0.342v-3.8c0-1.368-0.611-2.034-1.71-2.034c-1.278,0-2.053,1.026-2.053,1.026v4.808
		c0,0.18-0.161,0.342-0.342,0.342h-0.558c-0.181,0-0.343-0.162-0.343-0.342V38.378z"/>
	<path fill="#FFFFFF" d="M724.535,38.378c0-0.18,0.162-0.342,0.342-0.342h0.342c0.162,0,0.253,0.072,0.289,0.216l0.162,0.559
		c0,0,0.846-0.954,2.34-0.954c1.062,0,1.837,0.414,2.305,1.17c0.09-0.072,1.242-1.17,2.684-1.17c2.088,0,2.791,1.368,2.791,3.24v3.8
		c0,0.18-0.162,0.342-0.343,0.342h-0.576c-0.18,0-0.342-0.162-0.342-0.342v-3.8c0-1.35-0.576-2.034-1.62-2.034
		c-1.171,0-1.945,0.774-2.197,1.008c0.055,0.307,0.09,0.648,0.09,1.026v3.8c0,0.18-0.162,0.342-0.342,0.342h-0.576
		c-0.18,0-0.342-0.162-0.342-0.342v-3.8c0-1.368-0.612-2.034-1.711-2.034c-1.278,0-2.053,1.026-2.053,1.026v4.808
		c0,0.18-0.162,0.342-0.342,0.342h-0.559c-0.18,0-0.342-0.162-0.342-0.342V38.378z"/>
	<path fill="#FFFFFF" d="M737.999,33.859c0-0.486,0.378-0.865,0.847-0.865c0.486,0,0.863,0.379,0.863,0.865
		c0,0.468-0.377,0.846-0.863,0.846C738.377,34.705,737.999,34.327,737.999,33.859z M738.251,38.378c0-0.18,0.162-0.342,0.343-0.342
		h0.558c0.181,0,0.342,0.162,0.342,0.342v6.519c0,0.18-0.161,0.342-0.342,0.342h-0.558c-0.181,0-0.343-0.162-0.343-0.342V38.378z"/>
	<path fill="#FFFFFF" d="M742.049,38.378c0-0.18,0.162-0.342,0.342-0.342h0.342c0.162,0,0.253,0.072,0.289,0.216l0.162,0.559
		c0,0,1.025-0.954,2.521-0.954c2.089,0,2.79,1.368,2.79,3.24v3.8c0,0.18-0.161,0.342-0.342,0.342h-0.576
		c-0.18,0-0.342-0.162-0.342-0.342v-3.8c0-1.368-0.612-2.034-1.621-2.034c-1.35,0-2.322,1.026-2.322,1.026v4.808
		c0,0.18-0.162,0.342-0.342,0.342h-0.559c-0.18,0-0.342-0.162-0.342-0.342V38.378z"/>
	<path fill="#FFFFFF" d="M751.445,42.825c0,0-0.576-0.738-0.576-1.8c0-1.675,1.17-3.169,3.043-3.169h3.043
		c0.197,0,0.342,0.144,0.342,0.342v0.306c0,0.126-0.072,0.288-0.198,0.307l-0.972,0.198c0,0,0.811,0.594,0.811,2.017
		c0,1.638-1.171,3.061-3.025,3.061c-1.152,0-1.711-0.45-1.711-0.45s-0.792,0.36-0.792,1.08c0,0.45,0.324,0.883,0.99,0.883h2.593
		c1.513,0,2.701,0.738,2.701,2.305c0,1.494-1.549,2.917-3.728,2.917c-2.413,0-3.457-1.297-3.457-2.485
		c0-1.08,0.864-1.566,1.044-1.674v-0.055c-0.468-0.126-1.314-0.594-1.314-1.71C750.238,43.527,751.445,42.825,751.445,42.825z
		 M753.947,49.649c1.189,0,2.414-0.666,2.414-1.71c0-0.234-0.109-1.171-1.369-1.171c-0.666,0-1.332,0-1.998,0
		c0,0-1.207,0.324-1.207,1.387C751.787,49.02,752.724,49.649,753.947,49.649z M755.73,40.989c0-1.188-0.721-2.017-1.801-2.017
		c-1.098,0-1.891,0.828-1.891,2.017s0.793,2.017,1.891,2.017C755.01,43.006,755.73,42.178,755.73,40.989z"/>
	<path fill="#FFFFFF" d="M759.869,43.365c0.576,0,1.026,0.45,1.026,1.026c0,0.559-0.45,1.026-1.026,1.026
		c-0.559,0-1.026-0.468-1.026-1.026C758.843,43.815,759.311,43.365,759.869,43.365z"/>
</g>
</svg>
